<svg id="Layer_1" data-name="Layer 1" xmlns="http://www.w3.org/2000/svg" viewBox="0 0 108.29 106.48"><defs><style>.cls-1{fill:#f26622;}</style></defs><title>mac</title><path class="cls-1" d="M108.41,6.54,119.57,17.4l-18.75,2.29L89.32,8.85l19.09-2.31m.18-.53L88.2,8.48l12.45,11.73,20-2.44L108.59,6Z" transform="translate(-33.62 -2.62)"/><path class="cls-1" d="M136.72,3.12a1.62,1.62,0,0,1,1.59,1.42l1.07,8.84a1.62,1.62,0,0,1-1.42,1.8l-1,.11L125.47,4.47l11-1.34h.21m0-.5a1.23,1.23,0,0,0-.27,0L124.35,4.1,136.8,15.82l1.22-.14a2.14,2.14,0,0,0,1.86-2.36l-1.07-8.84a2.12,2.12,0,0,0-2.09-1.86Z" transform="translate(-33.62 -2.62)"/><path class="cls-1" d="M37.65,15.12,48.82,26,37,27.42h-.2A1.62,1.62,0,0,1,35.2,26l-1.07-8.83A1.64,1.64,0,0,1,34.46,16a1.61,1.61,0,0,1,1.08-.61l2.11-.25m.18-.52-2.35.27a2.12,2.12,0,0,0-1.84,2.36l1.07,8.83a2.12,2.12,0,0,0,2.1,1.87l.26,0,12.84-1.55L37.83,14.6Z" transform="translate(-33.62 -2.62)"/><path class="cls-1" d="M72.27,10.91,83.43,21.8,66.2,23.87,54.7,13.05l17.57-2.14m.17-.52L53.58,12.68,66,24.4l18.49-2.23L72.44,10.39Z" transform="translate(-33.62 -2.62)"/><path class="cls-1" d="M120.78,34.9,109.36,48.58l-1,1.23h18.24l.22-.28L138,35.68a6.22,6.22,0,0,1,3.21,5.42v61.06a6.2,6.2,0,0,1-6.2,6.19H42.39a6.2,6.2,0,0,1-6.19-6.19V41.1a6.2,6.2,0,0,1,6.19-6.2H49.5L38.08,48.58l-1,1.23H55.29l.22-.28L67.31,34.9h18.6L74.49,48.58l-1,1.23H91.69l.23-.28L103.73,34.9h17M49.58,64.84H129V58.6H49.58v6.24M86,87.75H91.3V67.57H86V87.75M49.58,96.47H129V90.22H49.58v6.25m72.8-62.32h-19l-12,14.91H75.07L87.51,34.15H67l-12,14.91H38.65L51.1,34.15H42.39a6.93,6.93,0,0,0-6.94,7v61.06a6.94,6.94,0,0,0,6.94,6.94H135a7,7,0,0,0,6.95-6.94V41.1a7,7,0,0,0-4.16-6.36L126.21,49.06H109.93l12.45-14.91Zm-72,29.94V59.35h77.94v4.74ZM86.79,87V68.32h3.76V87ZM50.33,95.72V91h77.94v4.75Z" transform="translate(-33.62 -2.62)"/></svg>