<svg id="Layer_1" data-name="Layer 1" xmlns="http://www.w3.org/2000/svg" viewBox="0 0 188.67 110.33"><defs><style>.cls-1{fill:#f16824;}</style></defs><title>motion</title><path class="cls-1" d="M114.44,28.56l49.72,28.71L114.44,86V28.56m-1.17-2V88l53.22-30.72Z" transform="translate(-1.38 -0.99)"/><path class="cls-1" d="M130.56,2.16c32.12,0,58.27,24.2,58.27,54s-26.13,54-58.27,54c-25.85,0-48.89-16-56-39l-.26-.83H43.07a1.33,1.33,0,0,1-1.33-1.33V65.27a1.35,1.35,0,0,1,1.33-1.35H72.88l-.18-1.26c-.18-1.49-.31-3-.37-4.54V57H23.2a1.35,1.35,0,0,1-1.38-1.31h0V52a1.33,1.33,0,0,1,1.33-1.34H72.63l.13-1c.2-1.54.47-3.07.81-4.55l.23-1.43H3.9a1.35,1.35,0,0,1-1.35-1.33V38.7A1.36,1.36,0,0,1,3.9,37.36h72l.3-.72a54.78,54.78,0,0,1,21-24.79,61.11,61.11,0,0,1,33.32-9.69m0-1.17C105.27,1,83.73,15.6,75.09,36.19H3.9A2.51,2.51,0,0,0,1.38,38.7h0v3.62a2.5,2.5,0,0,0,2.51,2.5H72.36c-.34,1.53-.6,3.09-.82,4.68H23.15a2.5,2.5,0,0,0-2.5,2.5v3.64a2.49,2.49,0,0,0,2.49,2.51h48c.06,1.57.19,3.12.39,4.68H43.07a2.5,2.5,0,0,0-2.5,2.51h0V69a2.5,2.5,0,0,0,2.5,2.51H73.49c7.14,23,30,39.85,57.13,39.85,32.82,0,59.43-24.68,59.43-55.13S163.44,1.07,130.62,1.07Z" transform="translate(-1.38 -0.99)"/></svg>