<svg id="Layer_1" data-name="Layer 1" xmlns="http://www.w3.org/2000/svg" viewBox="0 0 271.78 169.85"><defs><style>.cls-1{fill:none;}.cls-2{fill:#231f20;}</style></defs><title>headericon</title><polygon class="cls-1" points="176.73 81.01 131.47 107.14 131.47 54.9 176.73 81.01"/><polygon class="cls-1" points="176.73 81.01 131.47 107.14 131.47 54.9 176.73 81.01"/><path class="cls-2" d="M278.07,42.62A20.37,20.37,0,0,1,298.42,63V189h20.12v5.34a16.13,16.13,0,0,1-16.11,16.11H64.89a16.14,16.14,0,0,1-16.13-16.11V189H68.9V63A20.39,20.39,0,0,1,89.27,42.62h188.8M85.21,105.72h62.25l.26-.62A46.52,46.52,0,0,1,165.6,84a52,52,0,0,1,28.34-8.23c27.32,0,49.54,20.57,49.54,45.87s-22.22,45.88-49.54,45.88c-22,0-41.55-13.65-47.62-33.19l-.22-.7H119.56a1.13,1.13,0,0,1-1.14-1.14v-3.06a1.13,1.13,0,0,1,1.14-1.14h25.33l-.15-1.12c-.15-1.24-.26-2.5-.31-3.87l0-1H102.61a1.14,1.14,0,0,1-1.13-1.14v-3.08a1.13,1.13,0,0,1,1.13-1.12h42l.12-.86c.18-1.3.41-2.6.69-3.87l.27-1.22H85.21v78H154.4a11.44,11.44,0,0,0,11.39,10.41h35.74A11.43,11.43,0,0,0,212.92,189h69.21V63a4.05,4.05,0,0,0-4.06-4H89.27a4.05,4.05,0,0,0-4.06,4v42.75m93,44.78,1.5-.87L225,123.5l1.5-.86-1.5-.87L179.74,95.66l-1.5-.87V150.5M278.07,41.62H89.27A21.39,21.39,0,0,0,67.9,63V188H47.76v6.34a17.13,17.13,0,0,0,17.13,17.11H302.43a17.1,17.1,0,0,0,17.11-17.11V188H299.42V63a21.38,21.38,0,0,0-21.35-21.35ZM86.21,104.72V63a3.06,3.06,0,0,1,3.06-3h188.8a3.06,3.06,0,0,1,3.06,3V188H212a10.41,10.41,0,0,1-10.43,10.41H165.79A10.41,10.41,0,0,1,155.36,188H86.21v-76h58.25c-.29,1.3-.52,2.61-.71,4H102.61a2.13,2.13,0,0,0-2.13,2.12v3.08a2.14,2.14,0,0,0,2.13,2.14h40.82c0,1.33.15,2.64.32,4H119.56a2.13,2.13,0,0,0-2.14,2.14v3.06a2.13,2.13,0,0,0,2.14,2.14h25.81c6.07,19.57,25.5,33.89,48.57,33.89,27.91,0,50.54-21,50.54-46.88s-22.63-46.87-50.54-46.87c-21.48,0-39.82,12.41-47.14,29.93Zm93,44.05V96.52l45.26,26.12-45.26,26.13Z" transform="translate(-47.76 -41.62)"/></svg>